<?xml version="1.0" encoding="utf-8"?>
<!-- Generator: Adobe Illustrator 15.0.2, SVG Export Plug-In . SVG Version: 6.00 Build 0)  -->
<!DOCTYPE svg PUBLIC "-//W3C//DTD SVG 1.1//EN" "http://www.w3.org/Graphics/SVG/1.1/DTD/svg11.dtd">
<svg version="1.1" id="Layer_1" xmlns="http://www.w3.org/2000/svg" xmlns:xlink="http://www.w3.org/1999/xlink" x="0px" y="0px"
	 width="280.726px" height="58.846px" viewBox="298.566 276.556 280.726 58.846"
	 enable-background="new 298.566 276.556 280.726 58.846" xml:space="preserve">
<g>
	<g>
		<defs>
			<rect id="SVGID_1_" x="296.62" y="276.556" width="282.672" height="58.846"/>
		</defs>
		<clipPath id="SVGID_2_">
			<use xlink:href="#SVGID_1_"  overflow="visible"/>
		</clipPath>
		<path clip-path="url(#SVGID_2_)" fill="#272525" d="M577.839,285.714v-6.125l-2.209,4.465h-1.079l-2.266-4.465v6.125h-1.45v-9.158
			h1.45l2.807,5.695l2.747-5.695h1.452v9.158H577.839z M566.531,277.802v7.912h-1.451v-7.912h-2.641v-1.246h6.736v1.246H566.531z
			 M554.976,308.802c-1.441-1.383-2.663-2.143-4.97-2.143c-2.883,0-6.052,2.072-6.052,6.635v21.691h-9.362v-35.992h9.147v3.453
			c1.802-2.072,5.401-3.867,9.436-3.867c3.675,0,6.268,0.896,8.857,3.383L554.976,308.802z M519.991,313.64h-14.309
			c0.074-1.592,0.291-2.557,0.867-3.867c1.014-2.145,3.107-3.73,6.287-3.73c3.181,0,5.274,1.588,6.287,3.73
			C519.703,311.083,519.923,312.048,519.991,313.64 M529.245,319.787v-4.004c0-9.883-5.929-17.203-16.407-17.203
			c-9.755,0-16.403,6.631-16.403,18.375c0,14.576,8.528,18.447,17.417,18.447c6.793,0,10.476-2.004,14.309-5.664l-5.709-5.32
			c-2.386,2.279-4.409,3.383-8.526,3.383c-5.276,0-8.24-3.383-8.24-8.014H529.245L529.245,319.787z M490.658,334.986
			c-7.675,0-10.899-5.193-10.899-10.314v-38.956h9.32v38.405c0,2.143,0.932,3.252,3.3,3.252h3.585v7.613H490.658L490.658,334.986z
			 M477.221,334.986l-14.418-21.521l13.408-14.535h-11.317l-12.47,14.742v-27.956h-9.367v49.272h9.367v-10.73l3.967-4.289
			l9.225,15.02h11.605V334.986z M426.645,335.402c-7.499,0-16.797-3.871-16.797-18.447s9.298-18.375,16.797-18.375
			c5.188,0,9.079,1.52,12.396,4.834l-6.343,6.08c-1.944-2.004-3.604-2.834-6.053-2.834c-2.236,0-3.967,0.762-5.334,2.35
			c-1.443,1.73-2.09,4.148-2.09,7.945c0,3.799,0.646,6.287,2.09,8.016c1.368,1.588,3.098,2.35,5.334,2.35
			c2.447,0,4.107-0.832,6.053-2.836l6.343,6.014C435.724,333.812,431.832,335.402,426.645,335.402 M397.114,313.64h-14.353
			c0.073-1.592,0.292-2.557,0.868-3.867c1.018-2.145,3.118-3.73,6.309-3.73c3.189,0,5.292,1.588,6.308,3.73
			C396.824,311.083,397.042,312.048,397.114,313.64 M373.295,321.72c0,2.215-0.361,3.664-1.378,4.563
			c-1.667,1.52-3.333,1.727-5.943,1.727c-3.696,0-5.437-1.658-5.437-4.143c0-2.559,1.885-4.08,5.291-4.08h7.467V321.72z
			 M406.393,319.787v-4.004c0-9.883-5.944-17.203-16.455-17.203c-4.292,0-7.929,1.346-10.727,3.77
			c-2.685-2.477-6.867-3.77-12.583-3.77c-6.308,0-9.935,1.104-13.629,4.973l6.018,5.6c1.957-2.146,3.623-2.975,7.248-2.975
			c5.001,0,7.03,1.729,7.03,5.666v1.797h-8.914c-8.772,0-12.904,4.697-12.904,10.432c0,3.178,1.09,6.08,3.118,8.082
			c2.246,2.143,5.364,3.18,9.643,3.18c4.349,0,6.738-1.037,9.276-3.455v3.111h9.209v-1.033c2.525,1.035,5.355,1.445,8.229,1.445
			c6.813,0,10.511-2.004,14.355-5.664l-5.729-5.32c-2.39,2.281-4.422,3.385-8.552,3.385c-5.291,0-8.264-3.385-8.264-8.016H406.393
			L406.393,319.787z M344.08,334.986c-7.624,0-10.856-5.191-10.856-10.311V306.83h-3.957v-6.848h3.957v-10.65h9.347v10.65h6.617
			v6.848h-6.617v17.295c0,2.074,1.006,3.252,3.237,3.252h3.38v7.609H344.08z M328.576,323.658c0-6.08-3.75-9.879-11.181-10.57
			l-5.916-0.553c-3.318-0.277-3.895-1.797-3.895-3.109c0-1.797,1.587-3.455,5.338-3.455c3.246,0,6.564,0.555,8.729,2.42l5.77-5.598
			c-3.606-3.246-8.511-4.213-14.354-4.213c-7.646,0-14.501,4.006-14.501,11.467c0,6.633,4.186,9.465,10.965,10.088l5.917,0.553
			c2.957,0.275,3.965,1.521,3.965,3.314c0,2.695-3.389,3.732-6.635,3.732c-2.887,0-6.926-0.416-10.027-3.387l-6.131,5.873
			c4.76,4.559,10.098,5.182,16.015,5.182C321.507,335.402,328.576,331.603,328.576,323.658"/>
	</g>
</g>
</svg>
